HIERARCHY
ROOT Hips
{
	OFFSET 	0.0	0.0	0.0
	CHANNELS 6 Xposition Yposition Zposition Xrotation Yrotation Zrotation
	JOINT Spine
	{
		OFFSET 	15.3169	0.0	-0.012192
		CHANNELS 3 Xrotation Yrotation Zrotation
		JOINT Spine_1
		{
			OFFSET 	15.3176	0.0	-0.012192
			CHANNELS 3 Xrotation Yrotation Zrotation
			JOINT Neck
			{
				OFFSET 	19.9142	-1e-06	1.563377
				CHANNELS 3 Xrotation Yrotation Zrotation
				JOINT Head
				{
					OFFSET 	6.926521	0.0	0.0
					CHANNELS 3 Xrotation Yrotation Zrotation
					End Site
					{
						OFFSET 	20.766598	0.0	0.0
					}
				}
				JOINT LeftShoulder
				{
					OFFSET 	-6.201691	-7.28423	0.708832
					CHANNELS 3 Xrotation Yrotation Zrotation
					JOINT LeftArm
					{
						OFFSET 	14.107998	1.3e-05	0.0
						CHANNELS 3 Xrotation Yrotation Zrotation
						JOINT LeftForeArm
						{
							OFFSET 	28.5802	0.0	0.0
							CHANNELS 3 Xrotation Yrotation Zrotation
							JOINT LeftHand
							{
								OFFSET 	27.091896	0.0	0.0
								CHANNELS 3 Xrotation Yrotation Zrotation
								JOINT Bip01_L_Finger0
								{
									OFFSET 	2.676086	3.19825	0.628212
									CHANNELS 3 Xrotation Yrotation Zrotation
									JOINT Bip01_L_Finger01
									{
										OFFSET 	2.82782	0.0	0.0
										CHANNELS 3 Xrotation Yrotation Zrotation
										JOINT Bip01_L_Finger02
										{
											OFFSET 	3.100327	0.0	0.0
											CHANNELS 3 Xrotation Yrotation Zrotation
											End Site
											{
												OFFSET 	2.683968	0.0	0.0
											}
										}
									}
								}
								JOINT Bip01_L_Finger1
								{
									OFFSET 	9.438972	2.24244	-0.203926
									CHANNELS 3 Xrotation Yrotation Zrotation
									JOINT Bip01_L_Finger11
									{
										OFFSET 	3.12896	0.0	0.0
										CHANNELS 3 Xrotation Yrotation Zrotation
										JOINT Bip01_L_Finger12
										{
											OFFSET 	2.379051	0.0	0.0
											CHANNELS 3 Xrotation Yrotation Zrotation
											End Site
											{
												OFFSET 	2.09993	0.0	0.0
											}
										}
									}
								}
								JOINT Bip01_L_Finger2
								{
									OFFSET 	9.55928	-0.145352	-0.186424
									CHANNELS 3 Xrotation Yrotation Zrotation
									JOINT Bip01_L_Finger21
									{
										OFFSET 	3.801407	0.0	0.0
										CHANNELS 3 Xrotation Yrotation Zrotation
										JOINT Bip01_L_Finger22
										{
											OFFSET 	2.848793	0.0	0.0
											CHANNELS 3 Xrotation Yrotation Zrotation
											End Site
											{
												OFFSET 	2.01886	0.0	0.0
											}
										}
									}
								}
								JOINT Bip01_L_Finger3
								{
									OFFSET 	8.993629	-2.30169	0.226974
									CHANNELS 3 Xrotation Yrotation Zrotation
									JOINT Bip01_L_Finger31
									{
										OFFSET 	3.369652	0.0	0.0
										CHANNELS 3 Xrotation Yrotation Zrotation
										JOINT Bip01_L_Finger32
										{
											OFFSET 	2.444229	0.0	0.0
											CHANNELS 3 Xrotation Yrotation Zrotation
											End Site
											{
												OFFSET 	2.057808	0.0	0.0
											}
										}
									}
								}
								JOINT Bip01_L_Finger4
								{
									OFFSET 	8.023811	-3.97473	1.201897
									CHANNELS 3 Xrotation Yrotation Zrotation
									JOINT Bip01_L_Finger41
									{
										OFFSET 	2.908783	0.0	0.0
										CHANNELS 3 Xrotation Yrotation Zrotation
										JOINT Bip01_L_Finger42
										{
											OFFSET 	1.535797	0.0	0.0
											CHANNELS 3 Xrotation Yrotation Zrotation
											End Site
											{
												OFFSET 	1.630142	0.0	0.0
											}
										}
									}
								}
							}
						}
					}
				}
				JOINT RightShoulder
				{
					OFFSET 	-6.20549	7.280139	0.70887
					CHANNELS 3 Xrotation Yrotation Zrotation
					JOINT RightArm
					{
						OFFSET 	14.107998	-1e-05	0.0
						CHANNELS 3 Xrotation Yrotation Zrotation
						JOINT RightForeArm
						{
							OFFSET 	28.5802	-1.9e-05	0.0
							CHANNELS 3 Xrotation Yrotation Zrotation
							JOINT RightHand
							{
								OFFSET 	27.092003	0.0	0.0
								CHANNELS 3 Xrotation Yrotation Zrotation
								JOINT Bip01_R_Finger0
								{
									OFFSET 	2.676079	-3.19825	0.628212
									CHANNELS 3 Xrotation Yrotation Zrotation
									JOINT Bip01_R_Finger01
									{
										OFFSET 	2.82782	0.0	0.0
										CHANNELS 3 Xrotation Yrotation Zrotation
										JOINT Bip01_R_Finger02
										{
											OFFSET 	3.100342	0.0	0.0
											CHANNELS 3 Xrotation Yrotation Zrotation
											End Site
											{
												OFFSET 	2.68396	0.0	0.0
											}
										}
									}
								}
								JOINT Bip01_R_Finger1
								{
									OFFSET 	9.438957	-2.242439	-0.203918
									CHANNELS 3 Xrotation Yrotation Zrotation
									JOINT Bip01_R_Finger11
									{
										OFFSET 	3.12896	0.0	0.0
										CHANNELS 3 Xrotation Yrotation Zrotation
										JOINT Bip01_R_Finger12
										{
											OFFSET 	2.379051	0.0	0.0
											CHANNELS 3 Xrotation Yrotation Zrotation
											End Site
											{
												OFFSET 	2.099922	0.0	0.0
											}
										}
									}
								}
								JOINT Bip01_R_Finger2
								{
									OFFSET 	9.559288	0.145353	-0.186417
									CHANNELS 3 Xrotation Yrotation Zrotation
									JOINT Bip01_R_Finger21
									{
										OFFSET 	3.801407	0.0	0.0
										CHANNELS 3 Xrotation Yrotation Zrotation
										JOINT Bip01_R_Finger22
										{
											OFFSET 	2.848793	0.0	0.0
											CHANNELS 3 Xrotation Yrotation Zrotation
											End Site
											{
												OFFSET 	2.01886	0.0	0.0
											}
										}
									}
								}
								JOINT Bip01_R_Finger3
								{
									OFFSET 	8.993629	2.301691	0.226974
									CHANNELS 3 Xrotation Yrotation Zrotation
									JOINT Bip01_R_Finger31
									{
										OFFSET 	3.369652	0.0	0.0
										CHANNELS 3 Xrotation Yrotation Zrotation
										JOINT Bip01_R_Finger32
										{
											OFFSET 	2.444221	0.0	0.0
											CHANNELS 3 Xrotation Yrotation Zrotation
											End Site
											{
												OFFSET 	2.057823	0.0	0.0
											}
										}
									}
								}
								JOINT Bip01_R_Finger4
								{
									OFFSET 	8.023811	3.97473	1.20192
									CHANNELS 3 Xrotation Yrotation Zrotation
									JOINT Bip01_R_Finger41
									{
										OFFSET 	2.908783	0.0	0.0
										CHANNELS 3 Xrotation Yrotation Zrotation
										JOINT Bip01_R_Finger42
										{
											OFFSET 	1.535797	0.0	0.0
											CHANNELS 3 Xrotation Yrotation Zrotation
											End Site
											{
												OFFSET 	1.630142	0.0	0.0
											}
										}
									}
								}
							}
						}
					}
				}
			}
		}
	}
	JOINT LeftUpLeg
	{
		OFFSET 	-12.021299	-8.83685	-0.372498
		CHANNELS 3 Xrotation Yrotation Zrotation
		JOINT LeftLeg
		{
			OFFSET 	39.9035	0.0	0.0
			CHANNELS 3 Xrotation Yrotation Zrotation
			JOINT LeftFoot
			{
				OFFSET 	39.6689	0.0	0.0
				CHANNELS 3 Xrotation Yrotation Zrotation
				JOINT Bip01_L_Toe0
				{
					OFFSET 	10.162399	-2e-06	13.629601
					CHANNELS 3 Xrotation Yrotation Zrotation
					End Site
					{
						OFFSET 	8.38147	0.0	0.0
					}
				}
			}
		}
	}
	JOINT RightUpLeg
	{
		OFFSET 	-12.021299	8.836849	-0.372444
		CHANNELS 3 Xrotation Yrotation Zrotation
		JOINT RightLeg
		{
			OFFSET 	39.9035	0.0	0.0
			CHANNELS 3 Xrotation Yrotation Zrotation
			JOINT RightFoot
			{
				OFFSET 	39.6689	0.0	0.0
				CHANNELS 3 Xrotation Yrotation Zrotation
				JOINT Bip01_R_Toe0
				{
					OFFSET 	10.162399	-2e-06	13.629601
					CHANNELS 3 Xrotation Yrotation Zrotation
					End Site
					{
						OFFSET 	8.38147	0.0	0.0
					}
				}
			}
		}
	}
}
MOTION
Frames: 7
Frame Time: 0.013889
4.02961489961 89.4727112695 4.36758107398 149.80269238 -0.565663369744 -93.2914223127 0.174847205882 -20.9240645096 0.750459856428 1.6148014714e-08 4.11959086224e-07 2.29240991558e-09 0.667277061113 -21.3654119296 2.92315945839 -0.327344003041 6.85715970691 -1.38682710246 158.954666095 -15.5426896106 103.882779292 23.006081973 19.7839709975 -0.028512778215 -3.60397852194e-06 38.3111072884 7.19128623836e-06 -131.805659723 18.8321878463 12.5921161743 0.0 0.0 0.0 0.0 0.0 0.0 0.0 0.0 0.0 0.0 0.0 0.0 0.0 0.0 0.0 0.0 0.0 0.0 0.0 0.0 0.0 0.0 0.0 0.0 0.0 0.0 0.0 0.0 0.0 0.0 0.0 0.0 0.0 0.0 0.0 0.0 0.0 0.0 0.0 0.0 0.0 0.0 0.0 0.0 0.0 -158.275827712 -11.5826530593 -101.949313599 -25.3915258363 21.24959802 -4.10607136618 -4.43200385463e-06 38.3015280533 7.44983074398e-06 133.496250769 14.1055231229 -17.6747563447 0.0 0.0 0.0 0.0 0.0 0.0 0.0 0.0 0.0 0.0 0.0 0.0 0.0 0.0 0.0 0.0 0.0 0.0 0.0 0.0 0.0 0.0 0.0 0.0 0.0 0.0 0.0 0.0 0.0 0.0 0.0 0.0 0.0 0.0 0.0 0.0 0.0 0.0 0.0 0.0 0.0 0.0 0.0 0.0 0.0 50.9566166588 67.1320587152 148.673410191 -4.99409914297e-06 51.2487095912 1.11158868735e-05 6.6740703501 -11.1821304413 3.7284844788 90.0 -9.99999994412e-07 75.0 -45.165787922 63.3698974488 -149.30761664 -5.91818361673e-06 51.4089884139 1.13074074285e-05 -8.65729403199 -12.9818818136 -1.59632179696 90.0 -9.99999994412e-07 75.0
4.0475088739 89.370828884 4.38619429256 149.653668629 -0.54726642712 -93.2924577056 0.179757920404 -21.0346872304 0.755025886207 1.68270534606e-08 4.11119047604e-07 2.76785882959e-09 0.677909660054 -21.2558959762 2.91272428729 -0.316777137 6.89407606509 -1.38491699984 158.906076362 -15.5076871571 103.856898828 22.9071444654 19.7250251665 -0.185159018222 -3.5892522476e-06 38.2304047613 7.17528770523e-06 -131.966063865 18.8183058047 12.6605178984 0.0 0.0 0.0 0.0 0.0 0.0 0.0 0.0 0.0 0.0 0.0 0.0 0.0 0.0 0.0 0.0 0.0 0.0 0.0 0.0 0.0 0.0 0.0 0.0 0.0 0.0 0.0 0.0 0.0 0.0 0.0 0.0 0.0 0.0 0.0 0.0 0.0 0.0 0.0 0.0 0.0 0.0 0.0 0.0 0.0 -158.24320035 -11.5503449969 -101.926338412 -25.275039711 21.2136616214 -3.95117687727 -4.41216583213e-06 38.2214862177 7.42134758548e-06 133.687915985 14.095374674 -17.7579462856 0.0 0.0 0.0 0.0 0.0 0.0 0.0 0.0 0.0 0.0 0.0 0.0 0.0 0.0 0.0 0.0 0.0 0.0 0.0 0.0 0.0 0.0 0.0 0.0 0.0 0.0 0.0 0.0 0.0 0.0 0.0 0.0 0.0 0.0 0.0 0.0 0.0 0.0 0.0 0.0 0.0 0.0 0.0 0.0 0.0 51.4498135941 67.3721026232 148.172920996 -5.03877752304e-06 51.4713426125 1.12330170617e-05 6.66177141672 -11.2427445455 3.73378308572 90.0 -9.99999994412e-07 75.0 -45.6652537227 63.5858748162 -148.802824403 -6.03667477306e-06 51.6418428409 1.13799763724e-05 -8.69456101228 -13.0424789255 -1.6457521093 90.0 -9.99999994412e-07 75.0
4.06519803528 89.2682735147 4.40455553822 149.505693606 -0.529077211047 -93.2932274204 0.184554213682 -21.1460602909 0.759713647962 1.74915379558e-08 4.10106654122e-07 3.25094171216e-09 0.688278142728 -21.146142906 2.90201041064 -0.306271054834 6.93064084195 -1.38300274029 158.857867961 -15.4726473492 103.83115105 22.8080601619 19.6661727652 -0.341972250892 -3.57442912367e-06 38.1494509095 7.15922986483e-06 -132.12615787 18.8038847133 12.7280048488 0.0 0.0 0.0 0.0 0.0 0.0 0.0 0.0 0.0 0.0 0.0 0.0 0.0 0.0 0.0 0.0 0.0 0.0 0.0 0.0 0.0 0.0 0.0 0.0 0.0 0.0 0.0 0.0 0.0 0.0 0.0 0.0 0.0 0.0 0.0 0.0 0.0 0.0 0.0 0.0 0.0 0.0 0.0 0.0 0.0 -158.210766272 -11.5181859662 -101.903367952 -25.1583070746 21.1776828957 -3.79597760467 -4.39246641366e-06 38.1413202119 7.39305765544e-06 133.879711161 14.0849207858 -17.8405043054 0.0 0.0 0.0 0.0 0.0 0.0 0.0 0.0 0.0 0.0 0.0 0.0 0.0 0.0 0.0 0.0 0.0 0.0 0.0 0.0 0.0 0.0 0.0 0.0 0.0 0.0 0.0 0.0 0.0 0.0 0.0 0.0 0.0 0.0 0.0 0.0 0.0 0.0 0.0 0.0 0.0 0.0 0.0 0.0 0.0 51.9530928658 67.6101870877 147.662518948 -5.08482276766e-06 51.6956702012 1.13521423559e-05 6.64951410506 -11.3043486243 3.73925063084 90.0 -9.99999994412e-07 75.0 -46.1720085167 63.7998338434 -148.291404169 -6.15674540412e-06 51.8761284263 1.14538760359e-05 -8.73200388438 -13.1039942513 -1.69536762416 90.0 -9.99999994412e-07 75.0
4.0826813627 89.1650464048 4.42266242236 149.35879665 -0.511107819005 -93.2937231583 0.189228684826 -21.2582032411 0.764518500857 1.81411832203e-08 4.08924599548e-07 3.74152693764e-09 0.698376582559 -21.0361508145 2.89102031985 -0.295826012045 6.96685297623 -1.38108356551 158.810040864 -15.4375737714 103.8055399 22.7088349528 19.6074158518 -0.498945628361 -3.55951102023e-06 38.0682494514 7.14311526209e-06 -132.285959945 18.7889411293 12.7945738579 0.0 0.0 0.0 0.0 0.0 0.0 0.0 0.0 0.0 0.0 0.0 0.0 0.0 0.0 0.0 0.0 0.0 0.0 0.0 0.0 0.0 0.0 0.0 0.0 0.0 0.0 0.0 0.0 0.0 0.0 0.0 0.0 0.0 0.0 0.0 0.0 0.0 0.0 0.0 0.0 0.0 0.0 0.0 0.0 0.0 -158.178524283 -11.4861799409 -101.880404669 -25.0413396393 21.1416690926 -3.64047988077 -4.37290119958e-06 38.0610280007 7.36495830241e-06 134.071647697 14.0741735434 -17.9224260467 0.0 0.0 0.0 0.0 0.0 0.0 0.0 0.0 0.0 0.0 0.0 0.0 0.0 0.0 0.0 0.0 0.0 0.0 0.0 0.0 0.0 0.0 0.0 0.0 0.0 0.0 0.0 0.0 0.0 0.0 0.0 0.0 0.0 0.0 0.0 0.0 0.0 0.0 0.0 0.0 0.0 0.0 0.0 0.0 0.0 52.4666239468 67.846229596 147.142027466 -5.13228663679e-06 51.9216891812 1.14732820029e-05 6.63729896696 -11.3669441168 3.74488799483 90.0 -9.99999994412e-07 75.0 -46.6860926069 64.0117286281 -147.773333992 -6.27841776874e-06 52.1118532756 1.15291574705e-05 -8.76962781356 -13.1664327401 -1.74517250689 90.0 -9.99999994412e-07 75.0
4.09995783508 89.0611487971 4.44051255638 149.213007091 -0.493370378122 -93.2939366879 0.193773910929 -21.3711356534 0.769435769843 1.87757042751e-08 4.0757557765e-07 4.23948288034e-09 0.708199055945 -20.9259177881 2.87975652972 -0.28544226502 7.00271140678 -1.37915871753 158.762595034 -15.4024700124 103.780069317 22.6094747509 19.5487564344 -0.656072285607 -3.54449979149e-06 37.9868041059 7.12694642745e-06 -132.445488407 18.7734915603 12.8602218699 0.0 0.0 0.0 0.0 0.0 0.0 0.0 0.0 0.0 0.0 0.0 0.0 0.0 0.0 0.0 0.0 0.0 0.0 0.0 0.0 0.0 0.0 0.0 0.0 0.0 0.0 0.0 0.0 0.0 0.0 0.0 0.0 0.0 0.0 0.0 0.0 0.0 0.0 0.0 0.0 0.0 0.0 0.0 0.0 0.0 -158.146473181 -11.4543308964 -101.85745101 -24.924149154 21.1056273839 -3.484690074 -4.35346581074e-06 37.9806075485 7.33704689783e-06 134.263737063 14.0631450273 -18.0037072324 0.0 0.0 0.0 0.0 0.0 0.0 0.0 0.0 0.0 0.0 0.0 0.0 0.0 0.0 0.0 0.0 0.0 0.0 0.0 0.0 0.0 0.0 0.0 0.0 0.0 0.0 0.0 0.0 0.0 0.0 0.0 0.0 0.0 0.0 0.0 0.0 0.0 0.0 0.0 0.0 0.0 0.0 0.0 0.0 0.0 52.9905734984 68.0801467144 146.611272796 -5.18122212512e-06 52.1493964096 1.15964565919e-05 6.62512656538 -11.4305324656 3.75069606429 90.0 -9.99999994412e-07 75.0 -47.2075423481 64.2215135246 -147.248595865 -6.40171553664e-06 52.3490255615 1.16058730409e-05 -8.80743800306 -13.2297993337 -1.79517096166 90.0 -9.99999994412e-07 75.0
4.11702643136 88.9565819346 4.45810355168 149.06835425 -0.475877043298 -93.2938598437 0.198182446248 -21.4848771229 0.774460744645 1.93948161408e-08 4.06062282199e-07 4.7446779146e-09 0.717739642111 -20.8154419043 2.86822157853 -0.275120071014 7.03821507252 -1.37722743874 158.715530427 -15.3673396651 103.754743227 22.5099854909 19.4901964709 -0.813345340777 -3.52939727583e-06 37.9051185926 7.11072587685e-06 -132.604761682 18.757552465 12.9249459378 0.0 0.0 0.0 0.0 0.0 0.0 0.0 0.0 0.0 0.0 0.0 0.0 0.0 0.0 0.0 0.0 0.0 0.0 0.0 0.0 0.0 0.0 0.0 0.0 0.0 0.0 0.0 0.0 0.0 0.0 0.0 0.0 0.0 0.0 0.0 0.0 0.0 0.0 0.0 0.0 0.0 0.0 0.0 0.0 0.0 -158.114611755 -11.4226428106 -101.834509419 -24.806747404 21.0695648627 -3.32861458843 -4.33415588833e-06 37.9000568191 7.30932083584e-06 134.455990797 14.0518473139 -18.084343665 0.0 0.0 0.0 0.0 0.0 0.0 0.0 0.0 0.0 0.0 0.0 0.0 0.0 0.0 0.0 0.0 0.0 0.0 0.0 0.0 0.0 0.0 0.0 0.0 0.0 0.0 0.0 0.0 0.0 0.0 0.0 0.0 0.0 0.0 0.0 0.0 0.0 0.0 0.0 0.0 0.0 0.0 0.0 0.0 0.0 53.5251047193 68.3118541202 146.070084661 -5.23168351604e-06 52.3787887769 1.17216881087e-05 6.61299747458 -11.4951151167 3.75667573191 90.0 -9.99999994412e-07 75.0 -47.7363898996 64.42914319 -146.717175968 -6.52666384978e-06 52.5876535246 1.16840764867e-05 -8.84543969482 -13.2940989667 -1.84536723228 90.0 -9.99999994412e-07 75.0
4.13388613046 88.8513470602 4.47543301968 148.924867442 -0.458639995295 -93.2934845249 0.202446821342 -21.5994472676 0.779588678699 1.99982338385e-08 4.04387406963e-07 5.25698041474e-09 0.726992422965 -20.7047212313 2.85641802819 -0.264859688114 7.07336291251 -1.37528897189 158.668846984 -15.3321863267 103.72956555 22.4103731294 19.4317378686 -0.970757895524 -3.51420529574e-06 37.8231966314 7.0944561117e-06 -132.763798303 18.7411402546 12.9887432212 0.0 0.0 0.0 0.0 0.0 0.0 0.0 0.0 0.0 0.0 0.0 0.0 0.0 0.0 0.0 0.0 0.0 0.0 0.0 0.0 0.0 0.0 0.0 0.0 0.0 0.0 0.0 0.0 0.0 0.0 0.0 0.0 0.0 0.0 0.0 0.0 0.0 0.0 0.0 0.0 0.0 0.0 0.0 0.0 0.0 -158.082938793 -11.3911196631 -101.811582338 -24.6891462106 21.0334885433 -3.17225986333 -4.31496709372e-06 37.8193737757 7.28177753318e-06 134.648420506 14.0402924758 -18.1643312261 0.0 0.0 0.0 0.0 0.0 0.0 0.0 0.0 0.0 0.0 0.0 0.0 0.0 0.0 0.0 0.0 0.0 0.0 0.0 0.0 0.0 0.0 0.0 0.0 0.0 0.0 0.0 0.0 0.0 0.0 0.0 0.0 0.0 0.0 0.0 0.0 0.0 0.0 0.0 0.0 0.0 0.0 0.0 0.0 0.0 54.070376645 68.54126664 145.518296961 -5.28372643846e-06 52.6098632072 1.18489999934e-05 6.60091228023 -11.560693519 3.76282789658 90.0 -9.99999994412e-07 75.0 -48.272662974 64.6345726328 -146.179064921 -6.65328938709e-06 52.8277454729 1.17638229878e-05 -8.88363817024 -13.3593365664 -1.89576560294 90.0 -9.99999994412e-07 75.0
